<?xml version="1.0" encoding="UTF-8"?>
<svg id="Lager_1" data-name="Lager 1" xmlns="http://www.w3.org/2000/svg" viewBox="0 0 772 361">
  <defs>
    <style>
      .cls-1 {
        fill: #42484d;
      }

      .cls-2 {
        fill: #d64545;
      }
    </style>
  </defs>
  <g>
    <path class="cls-2" d="m214.46,166.44h0c4.73-9.66,7.38-20.51,7.38-31.97,0-40.2-32.59-72.8-72.8-72.8s-72.81,32.6-72.81,72.8c0,11.34,2.6,22.08,7.24,31.65.03.05.07.15.14.3l43.45,98.27c8.48,19.02,35.48,19.02,43.95,0l42.15-94.58c3.42-8.46.98-2.44,1.3-3.67Zm-65.42-3.56c-16.57,0-30-13.43-30-30s13.43-30,30-30,30,13.43,30,30-13.43,30-30,30Z"/>
    <path class="cls-2" d="m83.61,166.44v-.02c-.05-.1-.09-.2-.14-.3-.2-.37.43,1.39.14.32Z"/>
  </g>
  <path class="cls-2" d="m258.69,171.9c-4.98,10.61-14.84,16.89-23.78,15.92l-42.93,91.45c-1.23,2.62-4.35,3.75-6.97,2.52s-3.75-4.35-2.52-6.97l42.94-91.46c-6.46-6.25-7.93-17.85-2.95-28.46,5.96-12.7,18.9-19.19,28.9-14.49,9.99,4.69,13.27,18.79,7.3,31.49Z"/>
  <path class="cls-2" d="m112.55,281.85c-2.45,1.11-5.33.02-6.43-2.42l-42.1-93.18c-7.58,1.76-15.59-2-18.92-9.37l-12.17-26.93c-.85-1.89-.01-4.09,1.87-4.95.94-.42,1.96-.43,2.86-.08.9.34,1.66,1.01,2.09,1.96l8.51,18.83,5.11-2.3-8.57-18.99c-.82-1.8-.02-3.92,1.78-4.73.9-.41,1.88-.41,2.74-.09.87.33,1.59.97,2.01,1.87l8.57,18.99,5.11-2.31-8.51-18.84c-.85-1.88-.01-4.08,1.87-4.94.94-.42,1.96-.43,2.86-.09.89.34,1.66,1.01,2.08,1.96l12.17,26.93c2.83,6.3,1.44,13.43-2.99,18.19l42.49,94.08c1.1,2.45.01,5.32-2.43,6.43Z"/>
  <g>
    <path class="cls-1" d="m333.97,175.43h25.38v30.52c-3.77,2.75-7.79,4.76-12.05,6.04-4.26,1.27-8.77,1.91-13.53,1.91-6.08,0-11.58-.94-16.51-2.83-4.93-1.89-9.14-4.51-12.64-7.87-3.5-3.36-6.2-7.35-8.1-11.97-1.9-4.62-2.85-9.66-2.85-15.13s.91-10.62,2.73-15.24c1.82-4.62,4.41-8.59,7.77-11.92,3.36-3.33,7.43-5.93,12.2-7.8,4.77-1.87,10.11-2.8,16.03-2.8,3.06,0,5.91.25,8.56.74,2.65.49,5.1,1.17,7.34,2.04s4.3,1.89,6.17,3.08c1.87,1.19,3.57,2.5,5.1,3.92l-4.43,6.83c-.68,1.09-1.56,1.75-2.65,1.99-1.09.24-2.28-.03-3.57-.81-1.22-.75-2.42-1.42-3.59-2.01-1.17-.59-2.42-1.11-3.75-1.55-1.33-.44-2.77-.78-4.33-1.02-1.56-.24-3.36-.36-5.4-.36-3.43,0-6.54.59-9.33,1.78-2.79,1.19-5.16,2.87-7.11,5.04-1.95,2.17-3.46,4.79-4.51,7.85-1.05,3.06-1.58,6.47-1.58,10.24,0,4.08.58,7.72,1.73,10.93,1.15,3.21,2.79,5.92,4.89,8.13,2.11,2.21,4.63,3.89,7.57,5.04,2.94,1.16,6.21,1.73,9.81,1.73,2.45,0,4.63-.25,6.55-.74,1.92-.49,3.8-1.16,5.63-2.01v-12.43h-8.36c-.99,0-1.76-.26-2.32-.79-.56-.53-.84-1.2-.84-2.01v-8.51Z"/>
    <path class="cls-1" d="m380.49,188.98c.44,4.93,1.84,8.53,4.2,10.8,2.36,2.28,5.44,3.41,9.25,3.41,1.94,0,3.61-.23,5.02-.69,1.41-.46,2.65-.97,3.72-1.53,1.07-.56,2.04-1.07,2.91-1.53s1.72-.69,2.57-.69c1.09,0,1.94.41,2.55,1.22l4.08,5.1c-1.5,1.73-3.14,3.17-4.94,4.31-1.8,1.14-3.67,2.04-5.6,2.7s-3.89,1.12-5.86,1.38c-1.97.25-3.87.38-5.71.38-3.67,0-7.09-.6-10.27-1.81-3.18-1.21-5.95-2.99-8.31-5.35-2.36-2.36-4.22-5.29-5.58-8.79-1.36-3.5-2.04-7.56-2.04-12.18,0-3.57.59-6.93,1.76-10.09s2.86-5.91,5.07-8.25,4.89-4.2,8.05-5.58c3.16-1.38,6.73-2.06,10.7-2.06,3.36,0,6.46.53,9.3,1.6,2.84,1.07,5.28,2.62,7.34,4.66,2.06,2.04,3.65,4.54,4.79,7.52,1.14,2.97,1.71,6.36,1.71,10.17,0,1.05-.05,1.92-.15,2.6-.1.68-.27,1.22-.51,1.63-.24.41-.56.69-.97.84-.41.15-.93.23-1.58.23h-31.49Zm22.11-8.36c0-1.46-.2-2.85-.59-4.18s-1.01-2.5-1.86-3.52c-.85-1.02-1.92-1.83-3.21-2.42-1.29-.59-2.84-.89-4.64-.89-3.36,0-6,.95-7.9,2.85-1.9,1.9-3.14,4.62-3.72,8.15h21.91Z"/>
    <path class="cls-1" d="m447.6,159.73c3.94,0,7.52.63,10.75,1.89,3.23,1.26,6,3.05,8.31,5.38,2.31,2.33,4.09,5.16,5.35,8.48,1.26,3.33,1.88,7.08,1.88,11.26s-.63,7.94-1.88,11.29c-1.26,3.35-3.04,6.19-5.35,8.54-2.31,2.34-5.08,4.14-8.31,5.4-3.23,1.26-6.81,1.89-10.75,1.89s-7.58-.63-10.83-1.89c-3.24-1.26-6.02-3.06-8.33-5.4-2.31-2.34-4.1-5.19-5.38-8.54-1.27-3.35-1.91-7.11-1.91-11.29s.64-7.93,1.91-11.26c1.27-3.33,3.07-6.16,5.38-8.48,2.31-2.33,5.09-4.12,8.33-5.38,3.24-1.26,6.85-1.89,10.83-1.89Zm0,43.57c4.01,0,6.98-1.38,8.92-4.15,1.94-2.77,2.9-6.89,2.9-12.36s-.97-9.54-2.9-12.31c-1.94-2.77-4.91-4.15-8.92-4.15s-7.13,1.38-9.07,4.15c-1.94,2.77-2.9,6.87-2.9,12.31s.97,9.59,2.9,12.36c1.94,2.77,4.96,4.15,9.07,4.15Z"/>
    <path class="cls-1" d="m509.35,139.15c4.96,0,9.2.47,12.71,1.4,3.52.93,6.39,2.26,8.61,3.97,2.22,1.72,3.85,3.8,4.87,6.24,1.02,2.45,1.53,5.18,1.53,8.2,0,1.7-.25,3.33-.74,4.89-.49,1.56-1.26,3.03-2.29,4.41-1.04,1.38-2.37,2.62-4,3.75-1.63,1.12-3.57,2.07-5.81,2.85,5.03,1.19,8.75,3.13,11.16,5.81,2.41,2.68,3.62,6.17,3.62,10.45,0,3.13-.6,6.03-1.81,8.71-1.21,2.68-2.96,5.01-5.27,6.98-2.31,1.97-5.16,3.51-8.54,4.61-3.38,1.1-7.26,1.66-11.64,1.66h-28.64v-73.94h26.24Zm-10.96,11.62v19.97h10.04c2.14,0,4.04-.18,5.71-.53,1.66-.36,3.06-.93,4.18-1.71,1.12-.78,1.98-1.81,2.57-3.08s.89-2.81.89-4.61-.25-3.4-.74-4.69c-.49-1.29-1.25-2.33-2.27-3.11-1.02-.78-2.31-1.35-3.87-1.71-1.56-.36-3.41-.54-5.55-.54h-10.96Zm13.1,50.6c2.45,0,4.46-.3,6.04-.89,1.58-.59,2.84-1.38,3.8-2.37.95-.98,1.61-2.11,1.99-3.39.37-1.27.56-2.59.56-3.95,0-1.49-.22-2.84-.66-4.03-.44-1.19-1.15-2.2-2.14-3.03-.99-.83-2.27-1.47-3.85-1.91-1.58-.44-3.53-.66-5.83-.66h-12.99v20.23h13.1Z"/>
    <path class="cls-1" d="m564.08,145.62c0,1.19-.24,2.29-.71,3.31-.48,1.02-1.11,1.92-1.91,2.7-.8.78-1.73,1.39-2.8,1.83-1.07.44-2.22.66-3.44.66-1.16,0-2.25-.22-3.29-.66-1.04-.44-1.95-1.05-2.73-1.83-.78-.78-1.4-1.68-1.86-2.7-.46-1.02-.69-2.12-.69-3.31s.23-2.3.69-3.34c.46-1.04,1.08-1.94,1.86-2.73.78-.78,1.69-1.39,2.73-1.83s2.13-.66,3.29-.66c1.22,0,2.37.22,3.44.66,1.07.44,2,1.05,2.8,1.83.8.78,1.43,1.69,1.91,2.73.48,1.04.71,2.15.71,3.34Zm-1.68,14.93v52.53h-14.06v-52.53h14.06Z"/>
    <path class="cls-1" d="m592.56,213.9c-2.38,0-4.48-.35-6.32-1.04-1.83-.7-3.38-1.69-4.64-2.98-1.26-1.29-2.21-2.85-2.85-4.69s-.97-3.91-.97-6.22v-28.33h-4.94c-.75,0-1.38-.24-1.91-.71-.53-.48-.79-1.19-.79-2.14v-5.5l8.41-1.53,2.85-13.6c.37-1.53,1.41-2.29,3.11-2.29h7.34v16h13.55v9.78h-13.55v27.41c0,1.46.35,2.62,1.04,3.47s1.69,1.27,2.98,1.27c.68,0,1.26-.08,1.73-.23.48-.15.88-.32,1.22-.51.34-.19.65-.36.94-.51s.59-.23.89-.23c.41,0,.75.09,1.02.28.27.19.54.5.82.94l4.23,6.73c-1.94,1.53-4.13,2.68-6.57,3.47-2.45.78-4.98,1.17-7.59,1.17Z"/>
    <path class="cls-1" d="m623.64,188.98c.44,4.93,1.84,8.53,4.2,10.8,2.36,2.28,5.44,3.41,9.25,3.41,1.94,0,3.61-.23,5.02-.69,1.41-.46,2.65-.97,3.72-1.53,1.07-.56,2.04-1.07,2.91-1.53s1.72-.69,2.57-.69c1.09,0,1.94.41,2.55,1.22l4.08,5.1c-1.5,1.73-3.14,3.17-4.94,4.31-1.8,1.14-3.67,2.04-5.6,2.7s-3.89,1.12-5.86,1.38c-1.97.25-3.87.38-5.71.38-3.67,0-7.09-.6-10.27-1.81-3.18-1.21-5.95-2.99-8.31-5.35-2.36-2.36-4.22-5.29-5.58-8.79-1.36-3.5-2.04-7.56-2.04-12.18,0-3.57.59-6.93,1.76-10.09s2.86-5.91,5.07-8.25,4.89-4.2,8.05-5.58c3.16-1.38,6.73-2.06,10.7-2.06,3.36,0,6.46.53,9.3,1.6,2.84,1.07,5.28,2.62,7.34,4.66,2.06,2.04,3.65,4.54,4.79,7.52,1.14,2.97,1.71,6.36,1.71,10.17,0,1.05-.05,1.92-.15,2.6-.1.68-.27,1.22-.51,1.63-.24.41-.56.69-.97.84-.41.15-.93.23-1.58.23h-31.49Zm22.11-8.36c0-1.46-.2-2.85-.59-4.18s-1.01-2.5-1.86-3.52c-.85-1.02-1.92-1.83-3.21-2.42-1.29-.59-2.84-.89-4.64-.89-3.36,0-6,.95-7.9,2.85-1.9,1.9-3.14,4.62-3.72,8.15h21.91Z"/>
    <path class="cls-1" d="m699.72,171.35c-.37.58-.76.99-1.15,1.25-.39.25-.93.38-1.61.38s-1.38-.17-2.09-.51c-.71-.34-1.51-.7-2.39-1.1-.88-.39-1.89-.76-3.03-1.1-1.14-.34-2.45-.51-3.95-.51-2.28,0-4.04.47-5.3,1.4-1.26.94-1.89,2.17-1.89,3.69,0,1.05.36,1.94,1.07,2.65.71.71,1.66,1.33,2.83,1.86,1.17.53,2.5,1.02,4,1.48,1.49.46,3.03.96,4.61,1.5,1.58.54,3.12,1.17,4.61,1.89,1.49.71,2.83,1.6,4,2.68,1.17,1.07,2.11,2.36,2.83,3.87.71,1.51,1.07,3.34,1.07,5.48,0,2.55-.47,4.9-1.4,7.06-.94,2.16-2.3,4.02-4.1,5.58-1.8,1.56-4.04,2.79-6.73,3.67-2.68.88-5.78,1.33-9.27,1.33-1.8,0-3.58-.16-5.35-.48-1.77-.32-3.45-.78-5.04-1.38-1.6-.59-3.09-1.28-4.48-2.06-1.39-.78-2.6-1.63-3.62-2.55l3.26-5.25c.37-.61.84-1.09,1.4-1.43.56-.34,1.28-.51,2.17-.51s1.63.21,2.34.64c.71.43,1.51.88,2.4,1.38.88.49,1.93.95,3.13,1.38,1.21.43,2.71.64,4.51.64,1.36,0,2.53-.15,3.52-.46.99-.31,1.78-.72,2.4-1.25.61-.53,1.06-1.12,1.35-1.78.29-.66.43-1.35.43-2.06,0-1.15-.37-2.1-1.1-2.83-.73-.73-1.68-1.37-2.85-1.91-1.17-.54-2.52-1.04-4.05-1.48-1.53-.44-3.08-.93-4.66-1.48-1.58-.54-3.13-1.19-4.64-1.94-1.51-.75-2.85-1.69-4.03-2.83-1.17-1.14-2.12-2.54-2.85-4.2-.73-1.66-1.1-3.69-1.1-6.06,0-2.17.42-4.24,1.27-6.19.85-1.95,2.12-3.68,3.82-5.17,1.7-1.49,3.81-2.68,6.34-3.57,2.53-.88,5.46-1.32,8.79-1.32,3.74,0,7.13.61,10.19,1.83,3.06,1.22,5.57,2.82,7.54,4.79l-3.21,4.99Z"/>
  </g>
</svg>